<svg xmlns="http://www.w3.org/2000/svg" xmlns:xlink="http://www.w3.org/1999/xlink" version="1.1" style="enable-background:new 0 0 512 512;" xml:space="preserve" width="512" height="512"><rect id="backgroundrect" width="100%" height="100%" x="0" y="0" fill="none" stroke="none"/>


















<g class="currentLayer" style=""><title>Layer 1</title><g id="svg_1" class="" fill="#ffffff" fill-opacity="1">
	<g id="svg_2" fill="#ffffff" fill-opacity="1">
		<path d="M363.273,0H148.728C66.719,0,0,66.719,0,148.728v214.544C0,445.281,66.719,512,148.728,512h214.544    C445.281,512,512,445.281,512,363.273V148.728C512,66.719,445.281,0,363.273,0z M472,363.272C472,423.225,423.225,472,363.273,472    H148.728C88.775,472,40,423.225,40,363.273V148.728C40,88.775,88.775,40,148.728,40h214.544C423.225,40,472,88.775,472,148.728    V363.272z" id="svg_3" fill="#ffffff" fill-opacity="1"/>
	</g>
</g><g id="svg_4" class="" fill="#ffffff" fill-opacity="1">
	<g id="svg_5" fill="#ffffff" fill-opacity="1">
		<path d="M256,118c-76.094,0-138,61.906-138,138s61.906,138,138,138s138-61.906,138-138S332.094,118,256,118z M256,354    c-54.037,0-98-43.963-98-98s43.963-98,98-98s98,43.963,98,98S310.037,354,256,354z" id="svg_6" fill="#ffffff" fill-opacity="1"/>
	</g>
</g><g id="svg_7" class="" fill="#ffffff" fill-opacity="1">
	<g id="svg_8" fill="#ffffff" fill-opacity="1">
		<circle cx="396" cy="116" r="20" id="svg_9" fill="#ffffff" fill-opacity="1"/>
	</g>
</g><g id="svg_10">
</g><g id="svg_11">
</g><g id="svg_12">
</g><g id="svg_13">
</g><g id="svg_14">
</g><g id="svg_15">
</g><g id="svg_16">
</g><g id="svg_17">
</g><g id="svg_18">
</g><g id="svg_19">
</g><g id="svg_20">
</g><g id="svg_21">
</g><g id="svg_22">
</g><g id="svg_23">
</g><g id="svg_24">
</g></g></svg>